<?xml version="1.0" encoding="utf-8"?>
<svg xmlns="http://www.w3.org/2000/svg" xmlns:xlink="http://www.w3.org/1999/xlink" style="margin: auto; background: none; display: block; z-index: 1; position: relative; shape-rendering: auto;" width="1490" height="751" preserveAspectRatio="xMidYMid" viewBox="0 0 1490 751">
<g transform="translate(745,375.5) scale(-1,1) translate(-745,-375.5)"><linearGradient id="lg-0.1456310630193134" x1="0" x2="1" y1="0" y2="0">
  <stop stop-color="#5ad045" offset="0"></stop>
  <stop stop-color="#1cffa0" offset="1"></stop>
</linearGradient><path d="M 1445 376 C 1445 559 1044 703 870 760 C 696 817 327 906 219 758 C 111 610 181 192 288 44 C 395 -104 717 -131 891 -75 C 1065 -19 1445 193 1445 376" fill="url(#lg-0.1456310630193134)" opacity="0.4">
  <animate attributeName="d" dur="10s" repeatCount="indefinite" keyTimes="0;0.3333333333333333;0.6666666666666666;1" calcmod="spline" keySplines="0.3 0.1 0.7 0.9;0.3 0.1 0.7 0.9;0.3 0.1 0.7 0.9" begin="-3.3333333333333335s" values="M 1445 376 C 1445 559 1044 703 870 760 C 696 817 327 906 219 758 C 111 610 181 192 288 44 C 395 -104 717 -131 891 -75 C 1065 -19 1445 193 1445 376;M 1270 376 C 1270 545 1030 704 869 756 C 708 808 392 841 293 704 C 194 567 153 155 252 18 C 351 -119 735 -140 896 -88 C 1057 -36 1270 207 1270 376;M 1306 376 C 1306 529 1004 674 858 722 C 712 770 448 781 358 657 C 268 533 273 222 363 98 C 453 -26 728 -68 874 -20 C 1020 28 1306 223 1306 376;M 1445 376 C 1445 559 1044 703 870 760 C 696 817 327 906 219 758 C 111 610 181 192 288 44 C 395 -104 717 -131 891 -75 C 1065 -19 1445 193 1445 376"></animate>
</path><path d="M 1410 376 C 1410 550 1058 774 892 828 C 726 882 350 879 247 738 C 144 597 161 167 264 26 C 367 -115 736 -162 902 -108 C 1068 -54 1410 202 1410 376" fill="url(#lg-0.1456310630193134)" opacity="0.4">
  <animate attributeName="d" dur="10s" repeatCount="indefinite" keyTimes="0;0.3333333333333333;0.6666666666666666;1" calcmod="spline" keySplines="0.3 0.1 0.7 0.9;0.3 0.1 0.7 0.9;0.3 0.1 0.7 0.9" begin="-3.3333333333333335s" values="M 1410 376 C 1410 550 1058 774 892 828 C 726 882 350 879 247 738 C 144 597 161 167 264 26 C 367 -115 736 -162 902 -108 C 1068 -54 1410 202 1410 376;M 1277 376 C 1277 533 1038 771 889 819 C 740 867 401 820 309 693 C 217 566 225 191 317 64 C 409 -63 744 -128 893 -80 C 1042 -32 1277 219 1277 376;M 1286 376 C 1286 540 1012 666 856 717 C 700 768 408 823 312 690 C 216 557 168 159 265 26 C 362 -107 726 -97 882 -46 C 1038 5 1286 212 1286 376;M 1410 376 C 1410 550 1058 774 892 828 C 726 882 350 879 247 738 C 144 597 161 167 264 26 C 367 -115 736 -162 902 -108 C 1068 -54 1410 202 1410 376"></animate>
</path><path d="M 1240 376 C 1240 528 1005 684 861 731 C 717 778 417 802 328 679 C 239 556 274 221 363 98 C 452 -25 730 -67 874 -20 C 1018 27 1240 224 1240 376" fill="url(#lg-0.1456310630193134)" opacity="0.4">
  <animate attributeName="d" dur="10s" repeatCount="indefinite" keyTimes="0;0.3333333333333333;0.6666666666666666;1" calcmod="spline" keySplines="0.3 0.1 0.7 0.9;0.3 0.1 0.7 0.9;0.3 0.1 0.7 0.9" begin="-3.3333333333333335s" values="M 1240 376 C 1240 528 1005 684 861 731 C 717 778 417 802 328 679 C 239 556 274 221 363 98 C 452 -25 730 -67 874 -20 C 1018 27 1240 224 1240 376;M 1361 376 C 1361 531 1019 717 871 765 C 723 813 411 810 320 684 C 229 558 260 215 351 89 C 442 -37 706 -8 854 40 C 1002 88 1361 221 1361 376;M 1315 376 C 1315 527 1022 740 879 787 C 736 834 420 799 331 677 C 242 555 273 219 362 97 C 451 -25 704 14 847 61 C 990 108 1315 225 1315 376;M 1240 376 C 1240 528 1005 684 861 731 C 717 778 417 802 328 679 C 239 556 274 221 363 98 C 452 -25 730 -67 874 -20 C 1018 27 1240 224 1240 376"></animate>
</path><path d="M 1307 376 C 1307 543 1043 754 885 806 C 727 858 391 839 293 704 C 195 569 158 155 256 20 C 354 -115 716 -72 874 -20 C 1032 32 1307 209 1307 376" fill="url(#lg-0.1456310630193134)" opacity="0.4">
  <animate attributeName="d" dur="10s" repeatCount="indefinite" keyTimes="0;0.3333333333333333;0.6666666666666666;1" calcmod="spline" keySplines="0.3 0.1 0.7 0.9;0.3 0.1 0.7 0.9;0.3 0.1 0.7 0.9" begin="-3.3333333333333335s" values="M 1307 376 C 1307 543 1043 754 885 806 C 727 858 391 839 293 704 C 195 569 158 155 256 20 C 354 -115 716 -72 874 -20 C 1032 32 1307 209 1307 376;M 1257 376 C 1257 537 1011 674 858 724 C 705 774 402 824 307 694 C 212 564 258 222 353 91 C 448 -40 709 -34 862 16 C 1015 66 1257 215 1257 376;M 1394 376 C 1394 543 1032 717 873 769 C 714 821 350 868 252 733 C 154 598 251 223 349 88 C 447 -47 733 -128 892 -76 C 1051 -24 1394 209 1394 376;M 1307 376 C 1307 543 1043 754 885 806 C 727 858 391 839 293 704 C 195 569 158 155 256 20 C 354 -115 716 -72 874 -20 C 1032 32 1307 209 1307 376"></animate>
</path><path d="M 1304 376 C 1304 540 1016 677 860 728 C 704 779 353 863 257 730 C 161 597 172 162 268 29 C 364 -104 734 -120 890 -69 C 1046 -18 1304 212 1304 376" fill="url(#lg-0.1456310630193134)" opacity="0.4">
  <animate attributeName="d" dur="10s" repeatCount="indefinite" keyTimes="0;0.3333333333333333;0.6666666666666666;1" calcmod="spline" keySplines="0.3 0.1 0.7 0.9;0.3 0.1 0.7 0.9;0.3 0.1 0.7 0.9" begin="-3.3333333333333335s" values="M 1304 376 C 1304 540 1016 677 860 728 C 704 779 353 863 257 730 C 161 597 172 162 268 29 C 364 -104 734 -120 890 -69 C 1046 -18 1304 212 1304 376;M 1293 376 C 1293 553 1064 785 896 840 C 728 895 418 832 314 689 C 210 546 219 212 323 69 C 427 -74 730 -149 898 -94 C 1066 -39 1293 199 1293 376;M 1455 376 C 1455 558 1081 823 908 879 C 735 935 408 845 301 698 C 194 551 90 124 197 -23 C 304 -170 702 -80 875 -23 C 1048 34 1455 194 1455 376;M 1304 376 C 1304 540 1016 677 860 728 C 704 779 353 863 257 730 C 161 597 172 162 268 29 C 364 -104 734 -120 890 -69 C 1046 -18 1304 212 1304 376"></animate>
</path><path d="M 1285 376 C 1285 540 1035 736 879 787 C 723 838 463 783 367 650 C 271 517 230 204 326 71 C 422 -62 740 -139 896 -88 C 1052 -37 1285 212 1285 376" fill="url(#lg-0.1456310630193134)" opacity="0.4">
  <animate attributeName="d" dur="10s" repeatCount="indefinite" keyTimes="0;0.3333333333333333;0.6666666666666666;1" calcmod="spline" keySplines="0.3 0.1 0.7 0.9;0.3 0.1 0.7 0.9;0.3 0.1 0.7 0.9" begin="-3.3333333333333335s" values="M 1285 376 C 1285 540 1035 736 879 787 C 723 838 463 783 367 650 C 271 517 230 204 326 71 C 422 -62 740 -139 896 -88 C 1052 -37 1285 212 1285 376;M 1292 376 C 1292 529 1014 712 869 759 C 724 806 381 829 291 705 C 201 581 203 171 293 47 C 383 -77 740 -103 885 -56 C 1030 -9 1292 223 1292 376;M 1323 376 C 1323 532 1017 710 869 758 C 721 806 374 838 282 712 C 190 586 198 171 290 45 C 382 -81 737 -102 885 -54 C 1033 -6 1323 220 1323 376;M 1285 376 C 1285 540 1035 736 879 787 C 723 838 463 783 367 650 C 271 517 230 204 326 71 C 422 -62 740 -139 896 -88 C 1052 -37 1285 212 1285 376"></animate>
</path></g>
</svg>