<?xml version="1.0" encoding="UTF-8"?>
<svg xmlns="http://www.w3.org/2000/svg" xmlns:xlink="http://www.w3.org/1999/xlink" width="375pt" height="374.999991pt" viewBox="0 0 375 374.999991" version="1.2">
<defs>
<clipPath id="clip1">
  <path d="M 59.558594 0 L 315.308594 0 L 315.308594 375 L 59.558594 375 Z M 59.558594 0 "/>
</clipPath>
</defs>
<g id="surface1">
<path style=" stroke:none;fill-rule:nonzero;fill:rgb(36.859131%,9.01947%,92.158508%);fill-opacity:1;" d="M 221.015625 134.125 C 221.015625 132.042969 221.015625 129.960938 221.015625 127.835938 C 221.015625 125.707031 221.015625 123.40625 221.015625 121.058594 L 214.59375 118.3125 C 214.59375 121.457031 214.59375 124.644531 214.59375 127.835938 C 214.59375 131.023438 214.59375 134.523438 214.375 137.800781 Z M 221.015625 134.125 "/>
<path style=" stroke:none;fill-rule:nonzero;fill:rgb(36.859131%,9.01947%,92.158508%);fill-opacity:1;" d="M 164.878906 112.773438 C 168.597656 110.292969 172.449219 107.945312 176.34375 105.6875 C 179.132812 104.046875 184.800781 101.035156 184.800781 101.035156 L 179.53125 96.605469 L 173.15625 100.152344 C 170.632812 101.613281 168.152344 103.117188 165.675781 104.578125 C 165.230469 104.980469 164.167969 113.21875 164.878906 112.773438 Z M 164.878906 112.773438 "/>
<path style=" stroke:none;fill-rule:nonzero;fill:rgb(36.859131%,9.01947%,92.158508%);fill-opacity:1;" d="M 164.65625 142.804688 L 164.65625 150.335938 C 166.914062 151.753906 170.808594 154.191406 173.15625 155.5625 C 175.503906 156.9375 178.203125 158.355469 178.203125 158.355469 L 184.800781 154.675781 C 184.800781 154.675781 179.132812 151.664062 176.34375 150.027344 C 172.359375 147.722656 168.417969 145.285156 164.65625 142.804688 Z M 164.65625 142.804688 "/>
<path style=" stroke:none;fill-rule:nonzero;fill:rgb(36.859131%,9.01947%,92.158508%);fill-opacity:1;" d="M 267.011719 144.136719 C 267.011719 143.261719 266.929688 142.398438 266.757812 141.542969 C 266.589844 140.6875 266.335938 139.855469 266.003906 139.050781 C 265.667969 138.242188 265.257812 137.476562 264.773438 136.753906 C 264.289062 136.027344 263.738281 135.355469 263.125 134.738281 C 262.507812 134.121094 261.835938 133.570312 261.109375 133.085938 C 260.386719 132.601562 259.621094 132.191406 258.816406 131.859375 C 258.007812 131.523438 257.179688 131.273438 256.324219 131.101562 C 255.46875 130.933594 254.605469 130.847656 253.730469 130.847656 C 251.539062 130.851562 249.472656 131.367188 247.535156 132.398438 C 246.074219 130.847656 244.523438 129.339844 242.886719 127.96875 C 254.441406 117.117188 262.011719 106.308594 264.046875 97.804688 C 264.359375 96.761719 264.558594 95.703125 264.644531 94.621094 C 264.730469 93.539062 264.703125 92.457031 264.5625 91.382812 C 264.421875 90.304688 264.167969 89.257812 263.804688 88.234375 C 263.441406 87.210938 262.976562 86.238281 262.410156 85.3125 C 253.863281 72.289062 238.148438 72.863281 218.667969 79.023438 C 214.859375 58.777344 207.910156 43.097656 189.136719 43.097656 C 187.824219 43.199219 186.539062 43.441406 185.28125 43.828125 C 184.019531 44.210938 182.816406 44.726562 181.667969 45.371094 C 180.523438 46.019531 179.457031 46.78125 178.476562 47.660156 C 177.496094 48.539062 176.625 49.515625 175.855469 50.585938 C 174.429688 50.054688 172.953125 49.789062 171.429688 49.789062 C 170.738281 49.800781 170.054688 49.871094 169.375 49.992188 C 168.695312 50.113281 168.03125 50.285156 167.378906 50.507812 C 166.726562 50.734375 166.09375 51.007812 165.484375 51.332031 C 164.875 51.65625 164.292969 52.023438 163.742188 52.4375 C 163.1875 52.851562 162.671875 53.304688 162.191406 53.800781 C 161.707031 54.296875 161.269531 54.824219 160.871094 55.386719 C 160.46875 55.949219 160.117188 56.542969 159.808594 57.160156 C 159.503906 57.777344 159.246094 58.417969 159.039062 59.074219 C 158.832031 59.734375 158.675781 60.402344 158.570312 61.085938 C 158.46875 61.769531 158.417969 62.457031 158.421875 63.144531 C 158.425781 63.835938 158.484375 64.523438 158.59375 65.203125 C 158.707031 65.886719 158.867188 66.554688 159.082031 67.210938 C 159.296875 67.867188 159.5625 68.503906 159.875 69.117188 C 160.191406 69.730469 160.550781 70.320312 160.953125 70.878906 C 161.359375 71.4375 161.804688 71.960938 162.292969 72.449219 C 162.78125 72.9375 163.300781 73.386719 163.859375 73.796875 C 163.195312 75.609375 162.617188 77.472656 162.042969 79.421875 C 143.140625 73.042969 125.605469 72.199219 116.175781 85.179688 C 108.828125 95.324219 118.878906 111.753906 134.949219 127.214844 C 117.238281 141.476562 105.683594 155.429688 116.132812 170.492188 C 117.003906 171.585938 117.972656 172.578125 119.046875 173.472656 C 120.125 174.367188 121.277344 175.140625 122.511719 175.796875 C 123.746094 176.453125 125.035156 176.972656 126.375 177.363281 C 127.71875 177.753906 129.085938 178.003906 130.476562 178.109375 C 130.699219 178.828125 130.984375 179.523438 131.324219 180.191406 C 131.667969 180.863281 132.0625 181.5 132.511719 182.105469 C 132.960938 182.707031 133.460938 183.269531 134.003906 183.789062 C 134.550781 184.304688 135.132812 184.773438 135.757812 185.195312 C 136.382812 185.613281 137.039062 185.976562 137.726562 186.285156 C 138.410156 186.59375 139.121094 186.839844 139.847656 187.027344 C 140.578125 187.214844 141.316406 187.339844 142.066406 187.402344 C 142.816406 187.464844 143.566406 187.464844 144.3125 187.398438 C 145.0625 187.332031 145.800781 187.203125 146.53125 187.011719 C 147.257812 186.820312 147.964844 186.570312 148.648438 186.257812 C 149.332031 185.949219 149.988281 185.582031 150.609375 185.160156 C 151.234375 184.738281 151.816406 184.265625 152.359375 183.742188 C 152.902344 183.222656 153.394531 182.660156 153.84375 182.054688 C 154.289062 181.449219 154.683594 180.808594 155.019531 180.136719 C 155.359375 179.464844 155.636719 178.769531 155.859375 178.050781 C 156.078125 177.328125 156.238281 176.597656 156.332031 175.851562 L 158.8125 175.230469 C 164.566406 198.796875 175.238281 212.613281 189.136719 212.613281 C 205.121094 212.613281 212.25 195.382812 216.277344 174.964844 C 224.585938 178.015625 233.160156 179.785156 242 180.28125 C 242.996094 180.367188 243.992188 180.390625 244.988281 180.34375 C 245.988281 180.296875 246.976562 180.179688 247.960938 180 C 248.941406 179.820312 249.910156 179.574219 250.859375 179.261719 C 251.808594 178.949219 252.730469 178.574219 253.628906 178.140625 C 254.527344 177.703125 255.394531 177.207031 256.222656 176.652344 C 257.054688 176.097656 257.847656 175.492188 258.59375 174.828125 C 259.34375 174.167969 260.046875 173.460938 260.699219 172.703125 C 261.351562 171.949219 261.953125 171.152344 262.496094 170.3125 C 263.15625 169.046875 263.65625 167.722656 263.996094 166.335938 C 264.335938 164.953125 264.503906 163.546875 264.503906 162.117188 C 264.503906 160.691406 264.335938 159.285156 263.996094 157.902344 C 263.65625 156.515625 263.15625 155.191406 262.496094 153.925781 C 263.921875 152.695312 265.027344 151.226562 265.816406 149.519531 C 266.605469 147.8125 267.003906 146.015625 267.011719 144.136719 Z M 169.613281 76.097656 C 170.160156 76.144531 170.707031 76.144531 171.253906 76.097656 C 172.53125 76.089844 173.78125 75.902344 175.007812 75.535156 C 176.234375 75.167969 177.378906 74.632812 178.449219 73.933594 C 179.519531 73.230469 180.46875 72.394531 181.300781 71.417969 C 182.128906 70.445312 182.800781 69.371094 183.320312 68.203125 C 183.839844 67.03125 184.183594 65.8125 184.347656 64.546875 C 184.515625 63.277344 184.5 62.011719 184.300781 60.746094 C 184.101562 59.480469 183.730469 58.273438 183.183594 57.117188 C 182.632812 55.960938 181.933594 54.90625 181.082031 53.949219 C 182.0625 52.65625 183.257812 51.605469 184.660156 50.789062 C 186.066406 49.976562 187.574219 49.464844 189.183594 49.253906 C 202.996094 49.253906 208.839844 59.886719 212.601562 80.882812 C 206.671875 82.964844 200.429688 85.535156 193.964844 88.28125 L 200.472656 92.441406 C 205.121094 90.496094 209.328125 88.765625 213.753906 87.304688 C 214.152344 89.917969 214.550781 92.664062 214.90625 95.632812 L 215.523438 100.949219 L 222.078125 104.492188 L 221.234375 94.835938 C 220.792969 91.558594 220.351562 88.324219 219.90625 85.179688 C 238.546875 79.199219 250.898438 79.199219 257.230469 88.589844 C 257.878906 89.734375 258.265625 90.964844 258.398438 92.277344 C 258.527344 93.585938 258.390625 94.867188 257.980469 96.121094 C 256.210938 103.738281 249.128906 113.4375 238.371094 123.359375 C 228.082031 114.488281 217.042969 106.679688 205.253906 99.929688 C 193.277344 92.808594 180.835938 86.625 167.933594 81.371094 C 168.375 79.730469 168.949219 77.871094 169.570312 76.097656 Z M 160.757812 132.21875 C 160.753906 117.25 162.496094 102.484375 165.984375 87.925781 C 178.355469 92.957031 190.292969 98.863281 201.800781 105.644531 C 213.003906 112.035156 223.507812 119.417969 233.320312 127.789062 C 223.503906 136.15625 212.996094 143.539062 201.800781 149.9375 C 189.703125 157.023438 177 162.75 163.679688 167.125 C 161.714844 155.574219 160.785156 143.9375 160.890625 132.21875 Z M 155.402344 169.515625 C 155.125 168.882812 154.804688 168.277344 154.433594 167.695312 C 154.0625 167.117188 153.648438 166.566406 153.191406 166.050781 C 152.734375 165.53125 152.242188 165.054688 151.710938 164.613281 C 151.179688 164.171875 150.621094 163.777344 150.027344 163.425781 C 149.433594 163.070312 148.820312 162.765625 148.179688 162.511719 C 147.539062 162.253906 146.882812 162.046875 146.210938 161.894531 C 145.542969 161.738281 144.863281 161.636719 144.175781 161.589844 C 143.488281 161.539062 142.800781 161.542969 142.113281 161.601562 C 141.425781 161.660156 140.746094 161.773438 140.078125 161.9375 C 139.410156 162.101562 138.757812 162.316406 138.121094 162.582031 C 137.484375 162.847656 136.871094 163.160156 136.285156 163.519531 C 135.699219 163.878906 135.140625 164.285156 134.617188 164.730469 C 134.09375 165.179688 133.605469 165.664062 133.15625 166.1875 C 132.707031 166.710938 132.300781 167.265625 131.941406 167.851562 C 131.578125 168.4375 131.261719 169.050781 130.996094 169.683594 C 130.726562 170.320312 130.511719 170.972656 130.34375 171.640625 C 128.535156 171.472656 126.820312 170.96875 125.207031 170.132812 C 123.589844 169.296875 122.191406 168.191406 121.003906 166.8125 C 113.609375 156.226562 122.019531 145.640625 139.375 131.644531 C 143.183594 134.964844 147.210938 138.242188 151.375 141.34375 L 151.375 133.460938 C 148.894531 131.511719 146.546875 129.5625 144.289062 127.613281 C 146.636719 125.796875 149.070312 123.9375 151.640625 122.03125 L 150.929688 114.589844 C 147.035156 117.515625 143.140625 120.394531 139.464844 123.449219 C 124.011719 108.921875 116.308594 95.367188 120.824219 89.121094 C 127.332031 80.261719 140.21875 79.066406 159.828125 85.753906 C 156.097656 101.078125 154.238281 116.625 154.25 132.398438 C 154.164062 144.761719 155.195312 157.03125 157.351562 169.207031 Z M 256.917969 166.992188 C 251.695312 175.585938 239.210938 176.203125 217.074219 168.675781 C 217.960938 163.050781 218.710938 157.289062 219.375 151.710938 L 212.648438 154.191406 C 212.117188 158.621094 211.539062 162.5625 210.921875 166.460938 C 207.511719 165.132812 203.882812 163.667969 200.03125 162.03125 L 192.457031 165.707031 C 198.035156 168.144531 204.058594 170.625 210.167969 172.839844 C 206.316406 192.992188 200.429688 206.238281 189.136719 206.238281 C 178.511719 206.238281 169.96875 193.789062 165.144531 173.457031 C 179.058594 168.984375 192.339844 163.078125 204.988281 155.742188 C 216.757812 148.980469 227.796875 141.183594 238.105469 132.351562 C 239.699219 133.859375 241.246094 135.410156 242.53125 136.78125 C 241.871094 137.777344 241.351562 138.84375 240.976562 139.980469 C 240.605469 141.117188 240.386719 142.285156 240.328125 143.476562 C 240.269531 144.671875 240.371094 145.855469 240.628906 147.023438 C 240.890625 148.191406 241.296875 149.300781 241.859375 150.359375 C 242.417969 151.417969 243.109375 152.378906 243.929688 153.25 C 244.75 154.121094 245.667969 154.867188 246.691406 155.488281 C 247.710938 156.109375 248.796875 156.585938 249.949219 156.914062 C 251.097656 157.242188 252.269531 157.414062 253.464844 157.421875 C 254.542969 157.40625 255.605469 157.273438 256.652344 157.023438 C 257.453125 158.574219 257.886719 160.222656 257.953125 161.964844 C 258.023438 163.707031 257.722656 165.382812 257.050781 166.992188 Z M 256.917969 166.992188 "/>
<g clip-path="url(#clip1)" clip-rule="nonzero">
<path style=" stroke:none;fill-rule:nonzero;fill:rgb(100%,49.01886%,49.01886%);fill-opacity:1;" d="M 310.136719 119.597656 C 310.738281 118.652344 311.289062 117.683594 311.789062 116.683594 C 312.292969 115.679688 312.742188 114.65625 313.136719 113.609375 C 313.53125 112.566406 313.871094 111.5 314.15625 110.417969 C 314.4375 109.335938 314.667969 108.242188 314.835938 107.136719 C 315.007812 106.03125 315.121094 104.917969 315.175781 103.800781 C 315.230469 102.683594 315.230469 101.566406 315.167969 100.449219 C 315.109375 99.332031 314.988281 98.21875 314.8125 97.117188 C 314.636719 96.011719 314.402344 94.917969 314.113281 93.835938 C 313.824219 92.757812 313.480469 91.695312 313.078125 90.648438 C 312.679688 89.605469 312.226562 88.582031 311.71875 87.585938 C 311.214844 86.585938 310.65625 85.617188 310.050781 84.679688 C 309.441406 83.738281 308.789062 82.832031 308.085938 81.960938 C 307.386719 81.089844 306.640625 80.257812 305.855469 79.460938 C 305.066406 78.667969 304.242188 77.917969 303.375 77.207031 C 302.507812 76.5 301.609375 75.839844 300.675781 75.222656 C 299.738281 74.609375 298.777344 74.042969 297.78125 73.53125 C 296.488281 72.863281 295.316406 72.027344 294.265625 71.023438 C 293.210938 70.019531 292.324219 68.886719 291.597656 67.625 C 290.871094 66.363281 290.335938 65.027344 289.996094 63.613281 C 289.65625 62.199219 289.519531 60.765625 289.59375 59.3125 C 289.640625 58.191406 289.632812 57.074219 289.566406 55.960938 C 289.496094 54.84375 289.371094 53.734375 289.191406 52.628906 C 289.007812 51.527344 288.769531 50.433594 288.472656 49.355469 C 288.175781 48.277344 287.828125 47.214844 287.421875 46.171875 C 287.015625 45.132812 286.558594 44.113281 286.046875 43.117188 C 285.535156 42.121094 284.972656 41.15625 284.363281 40.21875 C 283.75 39.285156 283.089844 38.382812 282.386719 37.515625 C 281.679688 36.644531 280.933594 35.816406 280.140625 35.027344 C 279.351562 34.234375 278.519531 33.488281 277.652344 32.785156 C 276.785156 32.078125 275.882812 31.421875 274.945312 30.8125 C 274.007812 30.199219 273.042969 29.640625 272.046875 29.128906 C 271.050781 28.621094 270.03125 28.164062 268.992188 27.757812 C 267.949219 27.351562 266.886719 27.003906 265.808594 26.710938 C 264.730469 26.414062 263.640625 26.175781 262.535156 25.996094 C 261.433594 25.816406 260.324219 25.691406 259.207031 25.625 C 258.089844 25.558594 256.972656 25.550781 255.855469 25.601562 C 254.40625 25.671875 252.972656 25.535156 251.558594 25.191406 C 250.144531 24.851562 248.808594 24.316406 247.550781 23.589844 C 246.289062 22.863281 245.160156 21.976562 244.152344 20.921875 C 243.148438 19.871094 242.3125 18.699219 241.644531 17.40625 C 241.132812 16.414062 240.566406 15.453125 239.953125 14.519531 C 239.339844 13.585938 238.679688 12.6875 237.96875 11.820312 C 237.261719 10.957031 236.511719 10.128906 235.71875 9.34375 C 234.925781 8.558594 234.09375 7.8125 233.222656 7.113281 C 232.351562 6.414062 231.445312 5.757812 230.507812 5.152344 C 229.570312 4.546875 228.601562 3.992188 227.605469 3.484375 C 226.609375 2.980469 225.589844 2.527344 224.546875 2.128906 C 223.503906 1.730469 222.441406 1.386719 221.363281 1.097656 C 220.28125 0.808594 219.191406 0.574219 218.085938 0.398438 C 216.984375 0.226562 215.875 0.105469 214.757812 0.046875 C 213.644531 -0.0117188 212.527344 -0.015625 211.414062 0.0429688 C 210.296875 0.0976562 209.1875 0.210938 208.082031 0.382812 C 206.980469 0.554688 205.886719 0.785156 204.804688 1.070312 C 203.726562 1.355469 202.664062 1.695312 201.617188 2.089844 C 200.574219 2.484375 199.554688 2.933594 198.554688 3.4375 C 197.554688 3.9375 196.585938 4.492188 195.644531 5.09375 C 194.417969 5.875 193.105469 6.46875 191.710938 6.875 C 190.3125 7.28125 188.886719 7.484375 187.433594 7.484375 C 185.980469 7.484375 184.554688 7.28125 183.15625 6.875 C 181.761719 6.46875 180.449219 5.875 179.222656 5.09375 C 178.277344 4.492188 177.308594 3.9375 176.308594 3.4375 C 175.308594 2.9375 174.285156 2.488281 173.238281 2.09375 C 172.191406 1.695312 171.128906 1.355469 170.046875 1.070312 C 168.964844 0.789062 167.871094 0.558594 166.769531 0.390625 C 165.664062 0.21875 164.550781 0.105469 163.433594 0.0507812 C 162.316406 -0.0078125 161.199219 -0.00390625 160.082031 0.0585938 C 158.96875 0.117188 157.855469 0.238281 156.753906 0.414062 C 155.648438 0.589844 154.554688 0.824219 153.476562 1.113281 C 152.394531 1.402344 151.332031 1.746094 150.289062 2.148438 C 149.246094 2.546875 148.222656 3.003906 147.226562 3.507812 C 146.230469 4.015625 145.261719 4.570312 144.320312 5.179688 C 143.382812 5.785156 142.476562 6.441406 141.605469 7.140625 C 140.734375 7.84375 139.902344 8.589844 139.109375 9.375 C 138.3125 10.164062 137.5625 10.992188 136.855469 11.859375 C 136.148438 12.722656 135.484375 13.625 134.871094 14.558594 C 134.257812 15.496094 133.691406 16.457031 133.179688 17.453125 C 132.511719 18.742188 131.671875 19.914062 130.667969 20.96875 C 129.664062 22.019531 128.53125 22.90625 127.273438 23.632812 C 126.011719 24.359375 124.675781 24.894531 123.265625 25.238281 C 121.851562 25.578125 120.417969 25.714844 118.964844 25.648438 C 116.726562 25.5625 114.5 25.707031 112.289062 26.078125 C 110.078125 26.449219 107.929688 27.039062 105.839844 27.851562 C 103.75 28.664062 101.761719 29.675781 99.878906 30.894531 C 98 32.113281 96.257812 33.507812 94.660156 35.082031 C 93.078125 36.667969 91.675781 38.398438 90.453125 40.277344 C 89.230469 42.152344 88.214844 44.136719 87.40625 46.226562 C 86.597656 48.316406 86.015625 50.46875 85.65625 52.679688 C 85.296875 54.890625 85.171875 57.117188 85.273438 59.355469 C 85.339844 60.808594 85.199219 62.238281 84.855469 63.652344 C 84.507812 65.0625 83.976562 66.398438 83.25 67.65625 C 82.523438 68.917969 81.636719 70.050781 80.589844 71.054688 C 79.539062 72.0625 78.371094 72.902344 77.085938 73.574219 C 76.09375 74.089844 75.128906 74.652344 74.199219 75.269531 C 73.265625 75.882812 72.367188 76.542969 71.5 77.25 C 70.636719 77.960938 69.8125 78.710938 69.027344 79.503906 C 68.238281 80.296875 67.496094 81.128906 66.796875 82 C 66.097656 82.871094 65.441406 83.777344 64.835938 84.714844 C 64.230469 85.652344 63.675781 86.621094 63.167969 87.617188 C 62.664062 88.613281 62.210938 89.636719 61.8125 90.679688 C 61.410156 91.722656 61.066406 92.785156 60.777344 93.863281 C 60.488281 94.941406 60.253906 96.035156 60.078125 97.136719 C 59.902344 98.242188 59.78125 99.351562 59.722656 100.464844 C 59.660156 101.582031 59.65625 102.699219 59.710938 103.816406 C 59.765625 104.929688 59.878906 106.042969 60.046875 107.144531 C 60.21875 108.25 60.445312 109.34375 60.726562 110.425781 C 61.011719 111.503906 61.347656 112.570312 61.742188 113.613281 C 62.136719 114.660156 62.582031 115.683594 63.082031 116.683594 C 63.582031 117.683594 64.132812 118.652344 64.734375 119.597656 C 65.511719 120.824219 66.105469 122.136719 66.511719 123.535156 C 66.917969 124.929688 67.121094 126.359375 67.121094 127.8125 C 67.121094 129.269531 66.917969 130.695312 66.511719 132.089844 C 66.105469 133.488281 65.511719 134.800781 64.734375 136.03125 C 64.128906 136.972656 63.574219 137.941406 63.070312 138.941406 C 62.570312 139.941406 62.121094 140.964844 61.722656 142.011719 C 61.328125 143.058594 60.984375 144.125 60.699219 145.207031 C 60.414062 146.289062 60.183594 147.382812 60.015625 148.488281 C 59.84375 149.59375 59.726562 150.707031 59.671875 151.824219 C 59.617188 152.945312 59.617188 154.0625 59.679688 155.179688 C 59.738281 156.296875 59.859375 157.410156 60.035156 158.515625 C 60.210938 159.621094 60.441406 160.710938 60.734375 161.792969 C 61.023438 162.875 61.367188 163.9375 61.769531 164.984375 C 62.167969 166.027344 62.621094 167.050781 63.128906 168.046875 C 63.636719 169.046875 64.195312 170.015625 64.800781 170.953125 C 65.410156 171.894531 66.0625 172.800781 66.765625 173.671875 C 67.46875 174.542969 68.214844 175.375 69.003906 176.171875 C 69.792969 176.964844 70.617188 177.714844 71.484375 178.421875 C 72.351562 179.132812 73.253906 179.792969 74.191406 180.40625 C 75.125 181.019531 76.089844 181.582031 77.085938 182.097656 C 78.367188 182.773438 79.535156 183.613281 80.578125 184.621094 C 81.625 185.628906 82.511719 186.761719 83.234375 188.019531 C 83.960938 189.277344 84.496094 190.613281 84.84375 192.023438 C 85.1875 193.433594 85.332031 194.863281 85.273438 196.316406 C 85.222656 197.433594 85.226562 198.550781 85.289062 199.667969 C 85.351562 200.785156 85.472656 201.898438 85.652344 203.003906 C 85.832031 204.109375 86.066406 205.203125 86.359375 206.28125 C 86.652344 207.363281 87 208.425781 87.402344 209.46875 C 87.804688 210.515625 88.261719 211.535156 88.769531 212.53125 C 89.28125 213.53125 89.839844 214.496094 90.449219 215.4375 C 91.058594 216.375 91.714844 217.277344 92.421875 218.148438 C 93.125 219.019531 93.871094 219.851562 94.664062 220.640625 C 95.453125 221.433594 96.285156 222.183594 97.152344 222.890625 C 98.019531 223.59375 98.925781 224.253906 99.863281 224.867188 C 100.800781 225.476562 101.765625 226.039062 102.761719 226.550781 C 103.757812 227.058594 104.777344 227.519531 105.820312 227.921875 C 106.863281 228.328125 107.925781 228.675781 109.003906 228.96875 C 110.085938 229.265625 111.175781 229.5 112.28125 229.683594 C 113.386719 229.863281 114.496094 229.984375 115.613281 230.046875 C 116.730469 230.113281 117.847656 230.121094 118.964844 230.066406 L 119.277344 230.066406 L 119.277344 366.496094 C 119.277344 366.867188 119.304688 367.234375 119.355469 367.601562 C 119.402344 367.972656 119.476562 368.332031 119.574219 368.691406 C 119.671875 369.050781 119.792969 369.398438 119.933594 369.742188 C 120.078125 370.085938 120.242188 370.417969 120.429688 370.738281 C 120.613281 371.058594 120.820312 371.367188 121.046875 371.660156 C 121.273438 371.953125 121.515625 372.234375 121.777344 372.496094 C 122.039062 372.757812 122.320312 373.003906 122.613281 373.226562 C 122.90625 373.453125 123.214844 373.660156 123.535156 373.847656 C 123.855469 374.03125 124.1875 374.199219 124.527344 374.339844 C 124.871094 374.484375 125.222656 374.601562 125.578125 374.699219 C 125.9375 374.796875 126.300781 374.871094 126.667969 374.921875 C 127.035156 374.972656 127.402344 374.996094 127.773438 375 C 128.144531 375 128.515625 374.980469 128.882812 374.933594 C 129.25 374.886719 129.613281 374.816406 129.972656 374.722656 C 130.332031 374.632812 130.683594 374.515625 131.027344 374.375 C 131.371094 374.234375 131.703125 374.074219 132.027344 373.890625 L 187.410156 342.222656 L 242.839844 373.890625 C 243.488281 374.261719 244.171875 374.546875 244.890625 374.738281 C 245.613281 374.929688 246.34375 375.023438 247.089844 375.023438 C 247.835938 375.023438 248.570312 374.929688 249.289062 374.738281 C 250.011719 374.546875 250.695312 374.261719 251.339844 373.890625 C 252.003906 373.53125 252.605469 373.089844 253.148438 372.566406 C 253.695312 372.046875 254.160156 371.460938 254.550781 370.816406 C 254.9375 370.171875 255.238281 369.484375 255.445312 368.757812 C 255.648438 368.035156 255.757812 367.292969 255.769531 366.539062 L 255.769531 264.21875 C 255.730469 263.683594 255.640625 263.160156 255.503906 262.640625 C 255.367188 262.125 255.183594 261.625 254.953125 261.140625 C 254.722656 260.65625 254.445312 260.199219 254.128906 259.769531 C 253.8125 259.335938 253.457031 258.941406 253.066406 258.574219 C 252.675781 258.210938 252.253906 257.886719 251.800781 257.601562 C 251.347656 257.316406 250.871094 257.074219 250.375 256.878906 C 249.875 256.683594 249.363281 256.535156 248.835938 256.433594 C 248.3125 256.335938 247.78125 256.285156 247.246094 256.285156 C 246.710938 256.285156 246.179688 256.335938 245.65625 256.433594 C 245.128906 256.535156 244.617188 256.683594 244.117188 256.878906 C 243.621094 257.074219 243.144531 257.316406 242.691406 257.601562 C 242.238281 257.886719 241.816406 258.210938 241.425781 258.574219 C 241.035156 258.941406 240.679688 259.335938 240.363281 259.769531 C 240.046875 260.199219 239.769531 260.65625 239.539062 261.140625 C 239.308594 261.625 239.125 262.125 238.988281 262.640625 C 238.851562 263.160156 238.761719 263.683594 238.722656 264.21875 L 238.722656 351.832031 L 196.132812 327.472656 L 196.132812 289.777344 C 196.09375 289.242188 196.007812 288.71875 195.871094 288.199219 C 195.734375 287.683594 195.546875 287.179688 195.316406 286.699219 C 195.085938 286.214844 194.8125 285.757812 194.496094 285.328125 C 194.175781 284.894531 193.824219 284.496094 193.429688 284.132812 C 193.039062 283.769531 192.617188 283.441406 192.164062 283.15625 C 191.710938 282.871094 191.234375 282.632812 190.738281 282.4375 C 190.238281 282.238281 189.726562 282.09375 189.203125 281.992188 C 188.675781 281.894531 188.144531 281.84375 187.609375 281.84375 C 187.074219 281.84375 186.546875 281.894531 186.019531 281.992188 C 185.492188 282.09375 184.980469 282.238281 184.484375 282.4375 C 183.984375 282.632812 183.511719 282.871094 183.058594 283.15625 C 182.605469 283.441406 182.183594 283.769531 181.789062 284.132812 C 181.398438 284.496094 181.042969 284.894531 180.726562 285.328125 C 180.410156 285.757812 180.136719 286.214844 179.90625 286.699219 C 179.671875 287.179688 179.488281 287.683594 179.351562 288.199219 C 179.214844 288.71875 179.125 289.242188 179.089844 289.777344 L 179.089844 327.472656 L 136.5 351.832031 L 136.5 243 C 137.097656 243.792969 137.734375 244.554688 138.40625 245.285156 C 139.078125 246.015625 139.785156 246.714844 140.523438 247.378906 C 141.257812 248.046875 142.023438 248.675781 142.820312 249.269531 C 143.617188 249.863281 144.4375 250.421875 145.285156 250.9375 C 146.132812 251.457031 147.003906 251.933594 147.894531 252.371094 C 148.789062 252.808594 149.699219 253.199219 150.625 253.550781 C 151.554688 253.90625 152.5 254.210938 153.457031 254.476562 C 154.414062 254.738281 155.378906 254.957031 156.359375 255.132812 C 157.335938 255.304688 158.320312 255.433594 159.308594 255.515625 C 160.300781 255.597656 161.289062 255.632812 162.285156 255.621094 C 163.277344 255.609375 164.265625 255.554688 165.253906 255.449219 C 166.242188 255.347656 167.222656 255.199219 168.195312 255.003906 C 169.171875 254.808594 170.132812 254.570312 171.085938 254.285156 C 172.035156 254.003906 172.972656 253.675781 173.894531 253.304688 C 174.816406 252.933594 175.714844 252.519531 176.597656 252.0625 C 177.480469 251.605469 178.339844 251.113281 179.175781 250.574219 C 180.398438 249.796875 181.707031 249.203125 183.101562 248.792969 C 184.496094 248.386719 185.917969 248.183594 187.367188 248.183594 C 188.820312 248.183594 190.242188 248.386719 191.632812 248.792969 C 193.027344 249.203125 194.335938 249.796875 195.558594 250.574219 C 198.160156 252.246094 200.945312 253.519531 203.914062 254.390625 C 206.878906 255.265625 209.910156 255.707031 213 255.714844 C 215.824219 255.695312 218.597656 255.328125 221.324219 254.605469 C 223.488281 254.023438 225.570312 253.226562 227.570312 252.210938 C 229.566406 251.191406 231.441406 249.980469 233.1875 248.574219 C 234.933594 247.167969 236.511719 245.59375 237.929688 243.855469 C 239.347656 242.121094 240.574219 240.253906 241.601562 238.261719 C 242.265625 236.96875 243.101562 235.792969 244.105469 234.742188 C 245.109375 233.6875 246.242188 232.800781 247.5 232.074219 C 248.761719 231.347656 250.097656 230.8125 251.511719 230.472656 C 252.925781 230.128906 254.359375 229.996094 255.8125 230.066406 C 256.929688 230.117188 258.046875 230.109375 259.164062 230.042969 C 260.28125 229.976562 261.394531 229.855469 262.496094 229.671875 C 263.601562 229.492188 264.695312 229.253906 265.773438 228.957031 C 266.851562 228.664062 267.914062 228.3125 268.957031 227.910156 C 270 227.503906 271.019531 227.046875 272.015625 226.535156 C 273.011719 226.023438 273.976562 225.460938 274.914062 224.851562 C 275.851562 224.238281 276.753906 223.582031 277.625 222.875 C 278.492188 222.167969 279.324219 221.421875 280.113281 220.628906 C 280.90625 219.835938 281.65625 219.007812 282.359375 218.136719 C 283.0625 217.269531 283.722656 216.363281 284.332031 215.425781 C 284.945312 214.488281 285.507812 213.523438 286.015625 212.527344 C 286.527344 211.53125 286.984375 210.507812 287.390625 209.464844 C 287.796875 208.421875 288.144531 207.359375 288.441406 206.28125 C 288.734375 205.199219 288.972656 204.109375 289.152344 203.003906 C 289.335938 201.898438 289.457031 200.785156 289.523438 199.667969 C 289.589844 198.550781 289.597656 197.433594 289.546875 196.316406 C 289.480469 194.863281 289.617188 193.429688 289.957031 192.015625 C 290.300781 190.601562 290.832031 189.265625 291.558594 188.003906 C 292.285156 186.742188 293.175781 185.609375 294.226562 184.605469 C 295.277344 183.601562 296.449219 182.765625 297.738281 182.097656 C 298.730469 181.582031 299.695312 181.019531 300.628906 180.40625 C 301.5625 179.792969 302.464844 179.132812 303.328125 178.425781 C 304.195312 177.714844 305.019531 176.964844 305.808594 176.171875 C 306.59375 175.378906 307.339844 174.546875 308.039062 173.675781 C 308.742188 172.804688 309.394531 171.902344 310.003906 170.960938 C 310.609375 170.023438 311.167969 169.054688 311.671875 168.058594 C 312.179688 167.0625 312.632812 166.042969 313.03125 165 C 313.433594 163.953125 313.777344 162.890625 314.066406 161.8125 C 314.355469 160.734375 314.589844 159.640625 314.765625 158.535156 C 314.941406 157.433594 315.0625 156.324219 315.121094 155.207031 C 315.183594 154.089844 315.1875 152.972656 315.128906 151.855469 C 315.074219 150.738281 314.960938 149.628906 314.792969 148.523438 C 314.621094 147.417969 314.394531 146.324219 314.109375 145.246094 C 313.824219 144.164062 313.484375 143.097656 313.089844 142.054688 C 312.695312 141.007812 312.246094 139.984375 311.746094 138.984375 C 311.246094 137.984375 310.691406 137.015625 310.089844 136.074219 C 309.300781 134.84375 308.699219 133.527344 308.289062 132.125 C 307.878906 130.722656 307.675781 129.289062 307.679688 127.828125 C 307.683594 126.367188 307.894531 124.933594 308.3125 123.535156 C 308.730469 122.132812 309.335938 120.820312 310.136719 119.597656 Z M 295.789062 145.199219 C 296.9375 147.007812 297.675781 148.972656 297.996094 151.09375 C 298.320312 153.214844 298.207031 155.308594 297.648438 157.378906 C 297.378906 158.410156 297.003906 159.402344 296.519531 160.355469 C 296.039062 161.308594 295.460938 162.199219 294.789062 163.027344 C 294.117188 163.855469 293.367188 164.601562 292.535156 165.273438 C 291.703125 165.941406 290.8125 166.511719 289.859375 166.992188 C 288.496094 167.695312 287.191406 168.496094 285.945312 169.386719 C 284.699219 170.277344 283.519531 171.25 282.414062 172.3125 C 281.304688 173.371094 280.277344 174.503906 279.328125 175.707031 C 278.382812 176.914062 277.523438 178.179688 276.757812 179.507812 C 275.992188 180.835938 275.320312 182.210938 274.75 183.632812 C 274.179688 185.054688 273.710938 186.511719 273.347656 188 C 272.984375 189.492188 272.730469 191 272.578125 192.523438 C 272.429688 194.050781 272.390625 195.582031 272.460938 197.113281 C 272.515625 198.171875 272.464844 199.222656 272.296875 200.269531 C 272.132812 201.316406 271.859375 202.335938 271.476562 203.324219 C 271.09375 204.3125 270.613281 205.25 270.035156 206.136719 C 269.453125 207.023438 268.785156 207.839844 268.03125 208.585938 C 267.289062 209.34375 266.476562 210.011719 265.589844 210.59375 C 264.707031 211.179688 263.769531 211.660156 262.777344 212.042969 C 261.789062 212.425781 260.773438 212.699219 259.722656 212.863281 C 258.675781 213.027344 257.625 213.074219 256.566406 213.015625 C 255.039062 212.953125 253.519531 213 252.003906 213.152344 C 250.484375 213.304688 248.984375 213.566406 247.503906 213.929688 C 246.023438 214.296875 244.574219 214.761719 243.160156 215.332031 C 241.742188 215.902344 240.375 216.566406 239.054688 217.328125 C 237.730469 218.09375 236.46875 218.945312 235.269531 219.882812 C 234.066406 220.824219 232.9375 221.84375 231.878906 222.945312 C 230.820312 224.042969 229.847656 225.214844 228.953125 226.449219 C 228.0625 227.6875 227.257812 228.984375 226.546875 230.332031 C 226.304688 230.804688 226.039062 231.257812 225.75 231.699219 C 225.460938 232.144531 225.148438 232.570312 224.816406 232.980469 C 224.480469 233.386719 224.128906 233.777344 223.753906 234.152344 C 223.378906 234.523438 222.984375 234.875 222.574219 235.207031 C 222.160156 235.539062 221.734375 235.847656 221.289062 236.136719 C 220.847656 236.421875 220.390625 236.683594 219.917969 236.925781 C 219.445312 237.164062 218.964844 237.375 218.46875 237.566406 C 217.976562 237.753906 217.476562 237.917969 216.964844 238.054688 C 216.453125 238.1875 215.9375 238.296875 215.417969 238.382812 C 214.894531 238.464844 214.371094 238.519531 213.84375 238.546875 C 213.3125 238.574219 212.785156 238.574219 212.257812 238.546875 C 211.730469 238.519531 211.207031 238.464844 210.683594 238.382812 C 210.164062 238.296875 209.648438 238.191406 209.136719 238.054688 C 208.625 237.917969 208.125 237.753906 207.628906 237.566406 C 207.136719 237.378906 206.65625 237.164062 206.183594 236.925781 C 205.710938 236.683594 205.253906 236.421875 204.8125 236.136719 C 203.515625 235.316406 202.171875 234.589844 200.773438 233.957031 C 199.375 233.328125 197.941406 232.800781 196.46875 232.371094 C 195 231.945312 193.503906 231.621094 191.988281 231.40625 C 190.46875 231.191406 188.945312 231.082031 187.410156 231.082031 C 185.878906 231.082031 184.355469 231.191406 182.835938 231.40625 C 181.320312 231.621094 179.824219 231.945312 178.351562 232.371094 C 176.882812 232.800781 175.445312 233.328125 174.050781 233.957031 C 172.652344 234.589844 171.308594 235.316406 170.011719 236.136719 C 169.128906 236.71875 168.191406 237.199219 167.203125 237.582031 C 166.214844 237.964844 165.199219 238.238281 164.152344 238.402344 C 163.105469 238.566406 162.054688 238.617188 161 238.558594 C 159.941406 238.496094 158.902344 238.324219 157.882812 238.039062 C 156.847656 237.78125 155.851562 237.414062 154.890625 236.941406 C 153.933594 236.46875 153.039062 235.898438 152.203125 235.234375 C 151.367188 234.570312 150.609375 233.824219 149.933594 232.996094 C 149.257812 232.171875 148.671875 231.285156 148.1875 230.332031 C 147.476562 228.972656 146.675781 227.667969 145.78125 226.421875 C 144.886719 225.175781 143.910156 223.996094 142.851562 222.890625 C 141.789062 221.78125 140.65625 220.753906 139.449219 219.804688 C 138.242188 218.859375 136.972656 218.003906 135.644531 217.234375 C 134.316406 216.46875 132.941406 215.800781 131.519531 215.226562 C 130.09375 214.65625 128.636719 214.1875 127.148438 213.824219 C 125.660156 213.457031 124.152344 213.199219 122.625 213.050781 C 121.097656 212.898438 119.570312 212.859375 118.035156 212.925781 C 117.515625 212.945312 116.992188 212.9375 116.472656 212.902344 C 115.949219 212.867188 115.433594 212.804688 114.917969 212.714844 C 114.402344 212.625 113.894531 212.511719 113.390625 212.371094 C 112.886719 212.230469 112.394531 212.0625 111.90625 211.871094 C 111.421875 211.679688 110.945312 211.464844 110.484375 211.222656 C 110.019531 210.984375 109.570312 210.71875 109.132812 210.433594 C 108.695312 210.144531 108.273438 209.835938 107.871094 209.507812 C 107.464844 209.175781 107.078125 208.828125 106.710938 208.457031 C 106.339844 208.085938 105.992188 207.699219 105.664062 207.292969 C 105.335938 206.886719 105.027344 206.464844 104.742188 206.027344 C 104.457031 205.589844 104.195312 205.136719 103.953125 204.675781 C 103.714844 204.210938 103.5 203.734375 103.308594 203.246094 C 103.121094 202.761719 102.957031 202.265625 102.816406 201.761719 C 102.675781 201.257812 102.5625 200.75 102.476562 200.234375 C 102.390625 199.71875 102.328125 199.199219 102.296875 198.675781 C 102.261719 198.15625 102.253906 197.632812 102.277344 197.113281 C 102.34375 195.578125 102.308594 194.050781 102.160156 192.523438 C 102.011719 190.996094 101.753906 189.488281 101.390625 188 C 101.027344 186.507812 100.5625 185.054688 99.992188 183.628906 C 99.421875 182.207031 98.75 180.832031 97.984375 179.503906 C 97.21875 178.175781 96.359375 176.910156 95.414062 175.703125 C 94.464844 174.496094 93.4375 173.367188 92.328125 172.308594 C 91.21875 171.25 90.039062 170.273438 88.792969 169.382812 C 87.542969 168.492188 86.238281 167.695312 84.875 166.992188 C 83.015625 165.984375 81.429688 164.652344 80.121094 162.988281 C 78.816406 161.324219 77.890625 159.46875 77.351562 157.421875 C 77.074219 156.398438 76.90625 155.355469 76.847656 154.296875 C 76.789062 153.234375 76.84375 152.179688 77.007812 151.128906 C 77.171875 150.082031 77.441406 149.0625 77.820312 148.070312 C 78.199219 147.078125 78.675781 146.132812 79.253906 145.242188 C 80.078125 143.949219 80.808594 142.605469 81.445312 141.207031 C 82.078125 139.808594 82.609375 138.375 83.039062 136.902344 C 83.46875 135.429688 83.792969 133.933594 84.011719 132.414062 C 84.230469 130.894531 84.335938 129.371094 84.335938 127.835938 C 84.335938 126.300781 84.230469 124.773438 84.011719 123.253906 C 83.792969 121.734375 83.46875 120.238281 83.039062 118.765625 C 82.609375 117.292969 82.078125 115.859375 81.445312 114.460938 C 80.808594 113.066406 80.078125 111.71875 79.253906 110.425781 C 78.675781 109.539062 78.199219 108.601562 77.820312 107.613281 C 77.441406 106.625 77.167969 105.609375 77.003906 104.5625 C 76.839844 103.515625 76.789062 102.464844 76.847656 101.40625 C 76.902344 100.351562 77.074219 99.3125 77.351562 98.289062 C 77.875 96.21875 78.789062 94.339844 80.101562 92.652344 C 81.410156 90.964844 83 89.609375 84.875 88.589844 C 86.238281 87.886719 87.542969 87.089844 88.792969 86.199219 C 90.039062 85.308594 91.21875 84.332031 92.328125 83.273438 C 93.4375 82.214844 94.464844 81.082031 95.414062 79.878906 C 96.359375 78.671875 97.21875 77.40625 97.984375 76.078125 C 98.75 74.75 99.421875 73.375 99.992188 71.953125 C 100.5625 70.527344 101.027344 69.070312 101.390625 67.582031 C 101.753906 66.089844 102.011719 64.582031 102.160156 63.058594 C 102.308594 61.53125 102.34375 60 102.277344 58.46875 C 102.253906 57.941406 102.257812 57.414062 102.289062 56.890625 C 102.316406 56.363281 102.375 55.839844 102.460938 55.320312 C 102.546875 54.796875 102.660156 54.285156 102.796875 53.773438 C 102.9375 53.265625 103.101562 52.765625 103.292969 52.273438 C 103.484375 51.78125 103.699219 51.300781 103.941406 50.832031 C 104.179688 50.363281 104.445312 49.90625 104.734375 49.464844 C 105.023438 49.023438 105.332031 48.597656 105.664062 48.1875 C 105.996094 47.78125 106.347656 47.386719 106.722656 47.015625 C 107.09375 46.640625 107.484375 46.289062 107.894531 45.957031 C 108.304688 45.625 108.730469 45.316406 109.171875 45.027344 C 109.613281 44.738281 110.066406 44.472656 110.535156 44.234375 C 111.003906 43.992188 111.484375 43.777344 111.976562 43.585938 C 112.46875 43.394531 112.96875 43.230469 113.476562 43.089844 C 113.984375 42.953125 114.5 42.839844 115.019531 42.753906 C 115.539062 42.667969 116.0625 42.609375 116.589844 42.578125 C 117.117188 42.546875 117.644531 42.542969 118.167969 42.566406 C 119.691406 42.628906 121.210938 42.582031 122.730469 42.429688 C 124.246094 42.277344 125.742188 42.015625 127.222656 41.652344 C 128.703125 41.289062 130.152344 40.824219 131.566406 40.253906 C 132.980469 39.6875 134.347656 39.023438 135.667969 38.261719 C 136.992188 37.503906 138.253906 36.652344 139.453125 35.714844 C 140.65625 34.777344 141.785156 33.761719 142.84375 32.664062 C 143.902344 31.566406 144.878906 30.402344 145.773438 29.164062 C 146.667969 27.929688 147.472656 26.640625 148.1875 25.292969 C 148.429688 24.824219 148.695312 24.371094 148.984375 23.929688 C 149.273438 23.488281 149.585938 23.066406 149.917969 22.65625 C 150.253906 22.25 150.605469 21.859375 150.980469 21.488281 C 151.355469 21.117188 151.746094 20.765625 152.15625 20.433594 C 152.566406 20.105469 152.992188 19.796875 153.4375 19.511719 C 153.878906 19.222656 154.332031 18.960938 154.804688 18.722656 C 155.273438 18.484375 155.753906 18.269531 156.246094 18.078125 C 156.738281 17.890625 157.238281 17.726562 157.746094 17.589844 C 158.253906 17.453125 158.769531 17.34375 159.289062 17.257812 C 159.808594 17.175781 160.332031 17.121094 160.859375 17.089844 C 161.386719 17.058594 161.910156 17.058594 162.4375 17.082031 C 162.964844 17.109375 163.488281 17.160156 164.007812 17.242188 C 164.527344 17.320312 165.042969 17.425781 165.554688 17.558594 C 166.0625 17.691406 166.566406 17.851562 167.058594 18.039062 C 167.550781 18.222656 168.035156 18.433594 168.503906 18.667969 C 168.976562 18.902344 169.433594 19.164062 169.878906 19.445312 C 171.171875 20.273438 172.515625 21 173.914062 21.636719 C 175.308594 22.269531 176.742188 22.804688 178.214844 23.234375 C 179.6875 23.664062 181.183594 23.988281 182.699219 24.207031 C 184.21875 24.421875 185.746094 24.53125 187.277344 24.53125 C 188.8125 24.53125 190.339844 24.421875 191.855469 24.207031 C 193.375 23.988281 194.871094 23.664062 196.34375 23.234375 C 197.8125 22.804688 199.25 22.269531 200.644531 21.636719 C 202.042969 21 203.386719 20.273438 204.679688 19.445312 C 205.125 19.15625 205.585938 18.890625 206.058594 18.652344 C 206.535156 18.410156 207.019531 18.195312 207.515625 18.007812 C 208.011719 17.816406 208.515625 17.652344 209.03125 17.515625 C 209.542969 17.378906 210.0625 17.269531 210.589844 17.1875 C 211.113281 17.101562 211.644531 17.046875 212.171875 17.019531 C 212.703125 16.992188 213.234375 16.992188 213.765625 17.019531 C 214.296875 17.050781 214.824219 17.105469 215.351562 17.1875 C 215.875 17.269531 216.394531 17.378906 216.910156 17.519531 C 217.421875 17.65625 217.925781 17.820312 218.425781 18.007812 C 218.921875 18.199219 219.40625 18.414062 219.878906 18.65625 C 220.355469 18.894531 220.8125 19.160156 221.261719 19.449219 C 221.707031 19.738281 222.136719 20.050781 222.550781 20.382812 C 222.964844 20.71875 223.359375 21.074219 223.738281 21.449219 C 224.113281 21.824219 224.472656 22.214844 224.808594 22.628906 C 225.144531 23.042969 225.457031 23.46875 225.746094 23.914062 C 226.039062 24.359375 226.304688 24.820312 226.546875 25.292969 C 227.253906 26.652344 228.054688 27.957031 228.945312 29.203125 C 229.839844 30.449219 230.8125 31.625 231.875 32.734375 C 232.933594 33.839844 234.0625 34.867188 235.269531 35.8125 C 236.472656 36.761719 237.738281 37.617188 239.066406 38.386719 C 240.390625 39.152344 241.765625 39.820312 243.1875 40.394531 C 244.609375 40.964844 246.0625 41.433594 247.550781 41.796875 C 249.039062 42.164062 250.546875 42.421875 252.070312 42.574219 C 253.59375 42.722656 255.125 42.765625 256.652344 42.699219 C 257.179688 42.675781 257.707031 42.675781 258.234375 42.707031 C 258.761719 42.738281 259.285156 42.792969 259.804688 42.878906 C 260.328125 42.960938 260.84375 43.074219 261.351562 43.210938 C 261.859375 43.351562 262.363281 43.515625 262.855469 43.703125 C 263.347656 43.894531 263.828125 44.109375 264.296875 44.351562 C 264.765625 44.589844 265.222656 44.855469 265.664062 45.144531 C 266.105469 45.429688 266.53125 45.742188 266.941406 46.074219 C 267.351562 46.40625 267.746094 46.757812 268.117188 47.132812 C 268.492188 47.507812 268.84375 47.898438 269.175781 48.308594 C 269.507812 48.71875 269.816406 49.144531 270.105469 49.585938 C 270.394531 50.027344 270.65625 50.484375 270.898438 50.957031 C 271.136719 51.425781 271.355469 51.90625 271.542969 52.398438 C 271.734375 52.890625 271.898438 53.390625 272.035156 53.902344 C 272.175781 54.410156 272.285156 54.925781 272.371094 55.449219 C 272.453125 55.96875 272.511719 56.492188 272.539062 57.019531 C 272.570312 57.546875 272.574219 58.074219 272.546875 58.601562 C 272.484375 60.125 272.527344 61.648438 272.679688 63.164062 C 272.828125 64.683594 273.085938 66.183594 273.449219 67.664062 C 273.8125 69.144531 274.28125 70.59375 274.847656 72.007812 C 275.417969 73.425781 276.082031 74.792969 276.84375 76.113281 C 277.609375 77.433594 278.460938 78.695312 279.402344 79.894531 C 280.34375 81.097656 281.363281 82.222656 282.464844 83.277344 C 283.566406 84.335938 284.734375 85.308594 285.972656 86.195312 C 287.210938 87.085938 288.507812 87.882812 289.859375 88.589844 C 290.324219 88.832031 290.78125 89.097656 291.21875 89.386719 C 291.660156 89.675781 292.085938 89.988281 292.492188 90.324219 C 292.898438 90.65625 293.289062 91.011719 293.660156 91.386719 C 294.03125 91.757812 294.382812 92.152344 294.714844 92.5625 C 295.042969 92.972656 295.351562 93.398438 295.636719 93.839844 C 295.925781 94.285156 296.1875 94.742188 296.425781 95.210938 C 296.664062 95.679688 296.878906 96.160156 297.066406 96.652344 C 297.257812 97.144531 297.417969 97.644531 297.554688 98.15625 C 297.691406 98.664062 297.804688 99.179688 297.886719 99.699219 C 297.972656 100.21875 298.027344 100.742188 298.054688 101.269531 C 298.085938 101.796875 298.089844 102.320312 298.0625 102.847656 C 298.039062 103.375 297.984375 103.898438 297.90625 104.417969 C 297.824219 104.941406 297.71875 105.457031 297.585938 105.964844 C 297.453125 106.476562 297.292969 106.976562 297.109375 107.472656 C 296.925781 107.964844 296.714844 108.449219 296.480469 108.917969 C 296.242188 109.390625 295.984375 109.847656 295.703125 110.292969 C 294.867188 111.589844 294.128906 112.941406 293.492188 114.34375 C 292.851562 115.746094 292.3125 117.1875 291.878906 118.667969 C 291.449219 120.148438 291.125 121.652344 290.90625 123.179688 C 290.691406 124.703125 290.582031 126.238281 290.585938 127.78125 C 290.589844 129.324219 290.707031 130.859375 290.929688 132.382812 C 291.152344 133.910156 291.488281 135.410156 291.925781 136.886719 C 292.367188 138.367188 292.910156 139.804688 293.558594 141.203125 C 294.207031 142.605469 294.949219 143.949219 295.789062 145.242188 Z M 295.789062 145.199219 "/>
</g>
</g>
</svg>
